<?xml version="1.0" encoding="UTF-8"?>
<svg width="31px" height="31px" viewBox="0 0 31 31" version="1.1" xmlns="http://www.w3.org/2000/svg" xmlns:xlink="http://www.w3.org/1999/xlink">
    <title>分组 3</title>
    <g id="IOCN" stroke="none" stroke-width="1" fill="none" fill-rule="evenodd" opacity="0.9">
        <g id="一级导航-标题" transform="translate(-43.000000, -17.000000)" fill="#FFFFFF">
            <g id="分组-3" transform="translate(43.000000, 17.000000)">
                <path d="M28.2155689,10 C29.7533677,10 31,11.2466323 31,12.7844311 L31,20.5871534 C31,20.6697159 30.9898175,20.7508625 30.9703246,20.8290447 C30.9898437,21.0192834 31,21.225134 31,21.4453363 C31,26.7222313 26.7423158,31 21.4901961,31 C21.317167,31 20.8129763,30.9953608 20.1849076,30.9851256 C20.044165,30.9955672 19.9038625,31 19.7629964,31 L3.79256495,31 C2.25027392,31 1,29.7497261 1,28.2074351 C1,26.7041213 2.18787778,25.4782513 3.67620807,25.4172502 C5.29194018,25.1785462 9.56348841,25.0134847 9.58267561,24.9980295 C18.6072762,24.2861794 24.1736527,20.8605799 25.4387251,12.3888083 C25.4505925,12.3093363 25.4726111,12.2303516 25.5027497,12.1525059 C25.7895975,10.9189345 26.8952689,10 28.2155689,10 Z M10.8150924,0.0148743717 C10.955835,0.00443276958 11.0961375,-4.02709298e-11 11.2370036,-4.02708977e-11 L27.2074351,-4.02708977e-11 C28.7497261,-4.02734015e-11 30,1.25027391 30,2.79256495 C30,4.29587869 28.8121222,5.52174872 27.3237919,5.58274975 C25.7080598,5.82145378 21.4365116,5.98651532 21.4173244,6.00197053 C12.3927238,6.7138206 6.82634731,10.1394201 5.56127491,18.6111917 C5.54940753,18.6906637 5.52738894,18.7696484 5.49725026,18.8474941 C5.21040247,20.0810655 4.10473113,21 2.78443114,21 C1.24663228,21 2.21334062e-11,19.7533677 2.21307417e-11,18.2155689 L2.21298535e-11,10.4128466 C2.21298535e-11,10.3302841 0.0101825124,10.2491375 0.0296753601,10.1709553 C0.0101563358,9.98071656 -7.10542736e-15,9.77486599 -7.10542736e-15,9.55466373 C-7.10542736e-15,4.27776866 4.25768424,-3.5552894e-11 9.50980392,-3.5552894e-11 L9.6517025,0.000564362773 C9.88946441,0.00207953428 10.3126374,0.00668627294 10.8150924,0.0148743717 Z M16,11 C18.209139,11 20,12.790861 20,15 C20,17.209139 18.209139,19 16,19 C13.790861,19 12,17.209139 12,15 C12,12.790861 13.790861,11 16,11 Z" id="形状结合"></path>
            </g>
        </g>
    </g>
</svg>